<mxfile host="65bd71144e">
    <diagram id="nlIUdYz-UnOJXb4S5x3I" name="Page-1">
        <mxGraphModel dx="965" dy="493" grid="1" gridSize="10" guides="1" tooltips="1" connect="1" arrows="1" fold="1" page="1" pageScale="1" pageWidth="827" pageHeight="1169" math="0" shadow="0">
            <root>
                <mxCell id="0"/>
                <mxCell id="1" parent="0"/>
                <mxCell id="2" value="iOS app Distribution" style="swimlane;swimlaneLine=1;" vertex="1" parent="1">
                    <mxGeometry x="10" y="10" width="690" height="810" as="geometry"/>
                </mxCell>
                <mxCell id="3" value="Production Distribution" style="swimlane;swimlaneLine=1;gradientColor=none;swimlaneFillColor=none;fillColor=none;" vertex="1" parent="2">
                    <mxGeometry x="330" y="50" width="330" height="730" as="geometry"/>
                </mxCell>
                <mxCell id="39" value="Ad Hoc Distribution" style="swimlane;whiteSpace=wrap;html=1;fillColor=none;gradientColor=none;" vertex="1" parent="3">
                    <mxGeometry x="16" y="36" width="284" height="254" as="geometry"/>
                </mxCell>
                <mxCell id="27" value="Beta Distribution" style="swimlane;whiteSpace=wrap;html=1;" vertex="1" parent="39">
                    <mxGeometry x="28" y="48" width="230" height="180" as="geometry"/>
                </mxCell>
                <mxCell id="22" value="Insights" style="swimlane;fontStyle=0;childLayout=stackLayout;horizontal=1;startSize=30;horizontalStack=0;resizeParent=1;resizeParentMax=0;resizeLast=0;collapsible=1;marginBottom=0;whiteSpace=wrap;html=1;align=left;" vertex="1" parent="27">
                    <mxGeometry x="17" y="51" width="190" height="90" as="geometry"/>
                </mxCell>
                <mxCell id="23" value="APIs: Production environment" style="text;strokeColor=none;fillColor=none;align=left;verticalAlign=middle;spacingLeft=4;spacingRight=4;overflow=hidden;points=[[0,0.5],[1,0.5]];portConstraint=eastwest;rotatable=0;whiteSpace=wrap;html=1;" vertex="1" parent="22">
                    <mxGeometry y="30" width="190" height="30" as="geometry"/>
                </mxCell>
                <mxCell id="24" value="Audience: multiple Small Groups" style="text;strokeColor=none;fillColor=none;align=left;verticalAlign=middle;spacingLeft=4;spacingRight=4;overflow=hidden;points=[[0,0.5],[1,0.5]];portConstraint=eastwest;rotatable=0;whiteSpace=wrap;html=1;" vertex="1" parent="22">
                    <mxGeometry y="60" width="190" height="30" as="geometry"/>
                </mxCell>
                <mxCell id="53" value="App Store Distribution" style="swimlane;whiteSpace=wrap;html=1;startSize=23;" vertex="1" parent="3">
                    <mxGeometry x="20" y="327" width="230" height="180" as="geometry"/>
                </mxCell>
                <mxCell id="54" value="Insights" style="swimlane;fontStyle=0;childLayout=stackLayout;horizontal=1;startSize=30;horizontalStack=0;resizeParent=1;resizeParentMax=0;resizeLast=0;collapsible=1;marginBottom=0;whiteSpace=wrap;html=1;align=left;" vertex="1" parent="53">
                    <mxGeometry x="20" y="51" width="176" height="90" as="geometry"/>
                </mxCell>
                <mxCell id="55" value="APIs: Production environment" style="text;strokeColor=none;fillColor=none;align=left;verticalAlign=middle;spacingLeft=4;spacingRight=4;overflow=hidden;points=[[0,0.5],[1,0.5]];portConstraint=eastwest;rotatable=0;whiteSpace=wrap;html=1;" vertex="1" parent="54">
                    <mxGeometry y="30" width="176" height="30" as="geometry"/>
                </mxCell>
                <mxCell id="56" value="Audience: General" style="text;strokeColor=none;fillColor=none;align=left;verticalAlign=middle;spacingLeft=4;spacingRight=4;overflow=hidden;points=[[0,0.5],[1,0.5]];portConstraint=eastwest;rotatable=0;whiteSpace=wrap;html=1;" vertex="1" parent="54">
                    <mxGeometry y="60" width="176" height="30" as="geometry"/>
                </mxCell>
                <mxCell id="57" value="Enterprise Distribution" style="swimlane;whiteSpace=wrap;html=1;startSize=23;" vertex="1" parent="3">
                    <mxGeometry x="20" y="530" width="230" height="180" as="geometry"/>
                </mxCell>
                <mxCell id="58" value="Insights" style="swimlane;fontStyle=0;childLayout=stackLayout;horizontal=1;startSize=30;horizontalStack=0;resizeParent=1;resizeParentMax=0;resizeLast=0;collapsible=1;marginBottom=0;whiteSpace=wrap;html=1;align=left;" vertex="1" parent="57">
                    <mxGeometry x="20" y="51" width="176" height="90" as="geometry"/>
                </mxCell>
                <mxCell id="59" value="APIs: Production environment" style="text;strokeColor=none;fillColor=none;align=left;verticalAlign=middle;spacingLeft=4;spacingRight=4;overflow=hidden;points=[[0,0.5],[1,0.5]];portConstraint=eastwest;rotatable=0;whiteSpace=wrap;html=1;" vertex="1" parent="58">
                    <mxGeometry y="30" width="176" height="30" as="geometry"/>
                </mxCell>
                <mxCell id="60" value="Audience: Employees" style="text;strokeColor=none;fillColor=none;align=left;verticalAlign=middle;spacingLeft=4;spacingRight=4;overflow=hidden;points=[[0,0.5],[1,0.5]];portConstraint=eastwest;rotatable=0;whiteSpace=wrap;html=1;" vertex="1" parent="58">
                    <mxGeometry y="60" width="176" height="30" as="geometry"/>
                </mxCell>
                <mxCell id="34" value="Development Distribution" style="swimlane;swimlaneLine=1;gradientColor=none;swimlaneFillColor=none;fillStyle=dots;fillColor=none;" vertex="1" parent="2">
                    <mxGeometry x="20" y="50" width="270" height="240" as="geometry"/>
                </mxCell>
                <mxCell id="35" value="Alpha Distribution" style="swimlane;whiteSpace=wrap;html=1;" vertex="1" parent="34">
                    <mxGeometry x="16" y="36" width="230" height="180" as="geometry"/>
                </mxCell>
                <mxCell id="36" value="Insights" style="swimlane;fontStyle=0;childLayout=stackLayout;horizontal=1;startSize=30;horizontalStack=0;resizeParent=1;resizeParentMax=0;resizeLast=0;collapsible=1;marginBottom=0;whiteSpace=wrap;html=1;align=left;" vertex="1" parent="35">
                    <mxGeometry x="20" y="51" width="176" height="90" as="geometry"/>
                </mxCell>
                <mxCell id="37" value="APIs: Dev environment" style="text;strokeColor=none;fillColor=none;align=left;verticalAlign=middle;spacingLeft=4;spacingRight=4;overflow=hidden;points=[[0,0.5],[1,0.5]];portConstraint=eastwest;rotatable=0;whiteSpace=wrap;html=1;" vertex="1" parent="36">
                    <mxGeometry y="30" width="176" height="30" as="geometry"/>
                </mxCell>
                <mxCell id="38" value="Audience: Development team" style="text;strokeColor=none;fillColor=none;align=left;verticalAlign=middle;spacingLeft=4;spacingRight=4;overflow=hidden;points=[[0,0.5],[1,0.5]];portConstraint=eastwest;rotatable=0;whiteSpace=wrap;html=1;" vertex="1" parent="36">
                    <mxGeometry y="60" width="176" height="30" as="geometry"/>
                </mxCell>
            </root>
        </mxGraphModel>
    </diagram>
</mxfile>